<svg width="441" height="509" viewBox="0 0 441 509" fill="none" xmlns="http://www.w3.org/2000/svg">
<path d="M440.584 138.734V370.013C440.584 377.159 436.772 383.761 430.584 387.334L230.291 502.974C224.103 506.546 216.479 506.546 210.291 502.973L9.9999 387.334C3.81194 383.761 0 377.159 0 370.013V138.734C0 131.588 3.81194 124.986 9.99991 121.413L210.291 5.7736C216.479 2.20089 224.103 2.20087 230.291 5.77356L430.584 121.413C436.772 124.986 440.584 131.588 440.584 138.734Z" fill="url(#paint0_linear)"/>
<path d="M68.92 241.347V308.149C68.92 311.285 70.5915 314.184 73.3061 315.755L215.726 398.194C218.45 399.771 221.808 399.771 224.532 398.194L366.952 315.755C369.667 314.184 371.338 311.285 371.338 308.149V241.347C371.338 238.812 368.597 237.226 366.399 238.489L224.509 320.055C221.797 321.614 218.461 321.614 215.749 320.055L73.8586 238.489C71.6613 237.226 68.92 238.812 68.92 241.347Z" fill="white"/>
<path d="M164.503 130.728V197.795C164.503 200.934 166.177 203.835 168.896 205.406L243.161 248.302C245.358 249.572 248.105 247.986 248.105 245.448V178.65C248.105 175.519 246.44 172.624 243.733 171.051L169.455 127.878C167.258 126.601 164.503 128.186 164.503 130.728Z" fill="white"/>
<defs>
<linearGradient id="paint0_linear" x1="-1.68007e-06" y1="129" x2="471.339" y2="248.082" gradientUnits="userSpaceOnUse">
<stop stop-color="#A3EC93"/>
<stop offset="1" stop-color="#46C4C2"/>
</linearGradient>
</defs>
</svg>
