<svg width="642" height="155" viewBox="0 0 642 155" fill="none" xmlns="http://www.w3.org/2000/svg">
<path d="M227.354 122.969H242.78L267.039 56.521H250.163L235.001 103.721L219.839 56.521H203.095L227.354 122.969Z" fill="#0D4752"/>
<path d="M298.192 124.024C318.363 124.024 332.866 109.522 332.866 89.7453C332.866 69.9689 318.363 55.4663 298.192 55.4663C278.02 55.4663 263.517 69.9689 263.517 89.7453C263.517 109.522 278.02 124.024 298.192 124.024ZM298.192 109.653C287.38 109.653 280.261 101.611 280.261 89.7453C280.261 77.8795 287.38 69.8371 298.192 69.8371C308.871 69.8371 316.122 77.8795 316.122 89.7453C316.122 101.611 308.871 109.653 298.192 109.653Z" fill="#0D4752"/>
<path d="M371.226 124.024C387.97 124.024 399.967 115.586 402.473 101.611L386.256 98.315C384.674 105.434 379.532 109.653 371.753 109.653C361.47 109.653 354.746 101.875 354.746 89.7453C354.746 77.6158 361.47 69.8371 371.753 69.8371C379.532 69.8371 385.069 74.5834 386.256 81.5711L402.473 78.4068C400.231 64.2997 388.234 55.4663 371.226 55.4663C351.318 55.4663 337.474 69.4416 337.474 89.7453C337.474 110.049 351.318 124.024 371.226 124.024Z" fill="#0D4752"/>
<path d="M437.746 124.024C446.053 124.024 453.436 120.596 456.732 115.323V122.969H473.344V29.6252H456.732V63.9042C452.908 58.8942 445.789 55.4663 437.483 55.4663C417.838 55.4663 406.104 69.4416 406.104 89.7453C406.104 110.049 417.838 124.024 437.746 124.024ZM440.12 109.653C429.572 109.653 422.585 101.743 422.585 89.7453C422.585 77.7476 429.572 69.8371 440.12 69.8371C450.799 69.8371 457.786 77.7476 457.786 89.7453C457.786 101.743 450.799 109.653 440.12 109.653Z" fill="#0D4752"/>
<path d="M513.349 124.024C533.521 124.024 548.023 109.522 548.023 89.7453C548.023 69.9689 533.521 55.4663 513.349 55.4663C493.177 55.4663 478.674 69.9689 478.674 89.7453C478.674 109.522 493.177 124.024 513.349 124.024ZM513.349 109.653C502.538 109.653 495.418 101.611 495.418 89.7453C495.418 77.8795 502.538 69.8371 513.349 69.8371C524.028 69.8371 531.279 77.8795 531.279 89.7453C531.279 101.611 524.028 109.653 513.349 109.653Z" fill="#0D4752"/>
<path d="M553.259 122.969H569.871V93.8324C569.871 78.9342 575.804 70.2326 585.956 70.2326C593.735 70.2326 598.613 75.6382 598.613 83.4168V122.969H615.225V79.4616C615.225 64.9589 605.469 55.4663 590.966 55.4663C581.605 55.4663 574.09 60.0808 569.871 66.541V56.521H553.259V122.969Z" fill="#0D4752"/>
<path d="M624.027 122.969H640.639V56.521H624.027V122.969Z" fill="#0D4752"/>
<circle cx="632.047" cy="39.7008" r="9.91294" fill="#0D4752"/>
<path d="M7.62939e-05 65.4421V102.983C7.62939e-05 104.723 0.915519 106.335 2.41003 107.226L79.97 153.475C81.5287 154.405 83.4715 154.405 85.0302 153.475L162.59 107.226C164.085 106.335 165 104.723 165 102.983V65.4421C165 64.0069 163.439 63.1168 162.204 63.8481L85.0173 109.557C83.465 110.476 81.5351 110.476 79.9829 109.557L2.79654 63.8481C1.56164 63.1168 7.62939e-05 64.0069 7.62939e-05 65.4421Z" fill="url(#paint0_linear)"/>
<path d="M52.1503 3.26841V40.9576C52.1503 42.6993 53.0675 44.3123 54.5642 45.2029L94.9643 69.2426C96.1991 69.9774 97.7641 69.0875 97.7641 67.6506V30.1117C97.7641 28.3748 96.852 26.7655 95.3618 25.8733L54.9545 1.67903C53.7197 0.939694 52.1503 1.82922 52.1503 3.26841Z" fill="url(#paint1_linear)"/>
<defs>
<linearGradient id="paint0_linear" x1="82.5001" y1="62.1921" x2="82.5001" y2="154.984" gradientUnits="userSpaceOnUse">
<stop stop-color="#A3EC93"/>
<stop offset="1" stop-color="#46C4C2"/>
</linearGradient>
<linearGradient id="paint1_linear" x1="74.9572" y1="0" x2="74.9572" y2="70.9086" gradientUnits="userSpaceOnUse">
<stop stop-color="#A3EC93"/>
<stop offset="1" stop-color="#46C4C2"/>
</linearGradient>
</defs>
</svg>
